<?xml version="1.0" encoding="utf-8"?>
<!-- Generator: Adobe Illustrator 25.2.0, SVG Export Plug-In . SVG Version: 6.00 Build 0)  -->
<svg version="1.1" id="Layer_1" xmlns="http://www.w3.org/2000/svg" xmlns:xlink="http://www.w3.org/1999/xlink" x="0px" y="0px"
	 viewBox="0 0 1080 1080" style="enable-background:new 0 0 1080 1080;" xml:space="preserve">
<style type="text/css">
	.st0{fill:url(#SVGID_1_);}
	.st1{fill:#FFFFFF;}
</style>
<g>
	<g>
		<linearGradient id="SVGID_1_" gradientUnits="userSpaceOnUse" x1="824.2375" y1="546.7082" x2="244.1309" y2="546.7082">
			<stop  offset="1.331947e-07" style="stop-color:#FFFFFF"/>
			<stop  offset="9.130073e-02" style="stop-color:#FFFEF9"/>
			<stop  offset="0.2172" style="stop-color:#FFFAE7"/>
			<stop  offset="0.3632" style="stop-color:#FFF3CA"/>
			<stop  offset="0.5245" style="stop-color:#FFEBA1"/>
			<stop  offset="0.6981" style="stop-color:#FFDF6D"/>
			<stop  offset="0.8794" style="stop-color:#FFD22E"/>
			<stop  offset="1" style="stop-color:#FFC800"/>
		</linearGradient>
		<path class="st0" d="M812.7,819.3c-18.9-10.4-38.6-18.6-58.8-24.7c-10.1-3.1-20.4-5.6-30.7-7.7c-10.3-2.1-20.7-3.7-31.1-4.8
			c-20.8-2.4-41.9-3-62.8-2.4c-20.9,0.7-41.8,2.4-62.6,5.4c-20.8,2.8-41.4,6.8-61.9,11.4c-10.2,2.3-20.4,4.8-30.6,7.5
			c-10.2,2.7-20.3,5.6-30.3,8.6c-10.1,3-20.1,6.2-30.1,9.6c-10,3.4-19.9,6.9-29.8,10.5c-19.7,7.3-39.3,15.1-58.5,23.5l-25,10.9
			l-2.6-27.6c-9.5-99.2-17.8-198.5-24.9-297.9l-2.6-37.3l-1.3-18.6l-1.2-18.7l-2.4-37.3c-0.8-12.4-1.5-24.9-2.2-37.3
			c-2.9-49.8-5.3-99.6-7.4-149.4l-0.7-16.9l15.1,4.9l22.6,7.3l22.6,7.5c15.1,4.9,30.1,10,45.1,15.1c15,5.1,30,10.3,45,15.5
			c15,5.3,29.9,10.5,44.8,16.1c-15.6-2.9-31.2-6-46.7-9.1c-15.6-3.1-31.1-6.4-46.6-9.7c-15.5-3.4-31-6.7-46.5-10.1l-23.2-5.2
			l-23.2-5.3l14.4-12c6.4,49.5,12.4,99,17.8,148.5c1.4,12.4,2.8,24.8,4.1,37.2l3.9,37.2l2,18.6l1.9,18.6l3.7,37.2
			c9.7,99.2,18.2,198.5,25.5,297.9l-27.7-16.7c40.5-16.6,82-30.3,124.4-41.1c10.6-2.7,21.2-5.2,31.9-7.4c10.7-2.3,21.5-4.3,32.2-6.1
			c10.8-1.9,21.6-3.3,32.5-4.6c10.9-1.3,21.8-2.4,32.7-3.1c10.9-0.7,21.9-1.1,32.9-1.2c11-0.1,22,0.2,32.9,0.8
			c11,0.7,21.9,1.6,32.8,3.1c10.9,1.5,21.7,3.4,32.4,5.7c10.7,2.4,21.3,5.2,31.7,8.6c10.4,3.4,20.6,7.3,30.6,11.7
			C777.1,794.8,795.9,805.9,812.7,819.3z"/>
	</g>
	<g>
		<path class="st1" d="M672,352.2c-12.1-6.1-24-12.3-35.9-18.7c-6-3.2-11.9-6.3-17.8-9.6c-5.9-3.2-11.9-6.4-17.7-9.7l-17.7-9.8
			l-17.6-9.9l-8.8-4.9l-8.8-5l-17.5-10l18.4-7.6l-4.6,28.2l-2.3,14.1l-2.4,14.1l-4.8,28.2l-5,28.2c-6.7,37.5-13.8,75-21.1,112.4
			c-14.7,74.8-30.6,149.3-47.6,223.6l-21.9-24l3.5-0.3l3.3-0.3c2.2-0.2,4.4-0.3,6.5-0.4c4.3-0.2,8.6-0.4,12.9-0.6
			c8.6-0.3,17.2-0.3,25.8-0.3c8.6,0.1,17.1,0.4,25.7,0.8c8.5,0.5,17.1,1.1,25.6,1.8c17,1.5,34,3.9,50.9,6.9
			c8.4,1.5,16.8,3.3,25.2,5.2c8.3,2,16.7,4,24.9,6.4c32.9,9.5,65,22.6,94.3,40.4c7.3,4.5,14.4,9.3,21.3,14.2
			c6.9,5,13.5,10.4,19.9,16c6.3,5.7,12.4,11.6,18.1,17.8l4.2,4.7c1.4,1.6,2.7,3.2,4.1,4.9c2.7,3.2,5.2,6.6,7.7,10
			c-25-22.4-53.2-39.7-83.1-52.7c-29.9-13-61.2-22-93.1-27.9c-15.9-3.1-32-5.3-48.1-7c-8.1-0.9-16.1-1.6-24.2-2.1
			c-4-0.3-8.1-0.5-12.2-0.7c-4.1-0.2-8.1-0.4-12.2-0.5c-8.1-0.3-16.2-0.4-24.3-0.4c-4.1,0-8.1,0-12.2,0.1c-4.1,0.1-8.1,0.2-12.1,0.3
			c-8.1,0.3-16.2,0.7-24.2,1.2c-4,0.3-8,0.6-12,0.9l-5.9,0.6l-2.9,0.3l-2.7,0.3l-27.3,3.2l5.4-27.2c14.9-74.8,30.9-149.3,48-223.6
			c8.5-37.1,17.5-74.2,26.6-111.2l6.9-27.7l7.1-27.7l3.6-13.9l3.7-13.8l7.4-27.7l4.7-17.6l13.7,10l16.3,11.9l8.2,6l8.1,6l16.2,12
			l16.1,12.1c5.4,4,10.7,8.1,16.1,12.2c5.4,4.1,10.7,8.2,16,12.3C651,335.4,661.6,343.7,672,352.2z"/>
	</g>
</g>
</svg>
